<svg width="270" height="126" viewBox="0 0 270 126" fill="none" xmlns="http://www.w3.org/2000/svg">
<path fill-rule="evenodd" clip-rule="evenodd" d="M0.000427246 23.9506C0.000427246 11.248 10.2979 0.950562 23.0004 0.950562H227.897C240.599 0.950562 250.897 11.248 250.897 23.9506V102.955C250.897 115.658 240.599 125.955 227.897 125.955H23.0004C10.2979 125.955 0.000427246 115.658 0.000427246 102.955V23.9506ZM23.0004 6.95056C13.6116 6.95056 6.00043 14.5617 6.00043 23.9506V102.955C6.00043 112.344 13.6116 119.955 23.0004 119.955H227.897C237.285 119.955 244.897 112.344 244.897 102.955V23.9506C244.897 14.5617 237.285 6.95056 227.897 6.95056H23.0004ZM255.854 80.6645C263.666 80.6645 269.999 72.5183 269.999 62.4695C269.999 52.4207 263.666 44.2745 255.854 44.2745V80.6645ZM26.8415 11.8188C18.5572 11.8188 11.8415 18.5346 11.8415 26.8188V98.1205C11.8415 106.405 18.5572 113.121 26.8415 113.121H224.94C233.224 113.121 239.94 106.405 239.94 98.1205V26.8188C239.94 18.5346 233.224 11.8188 224.94 11.8188H26.8415Z" fill="#00CA32"/>
</svg>
