<svg width="217" height="107" viewBox="0 0 217 107" fill="none" xmlns="http://www.w3.org/2000/svg">
<path fill-rule="evenodd" clip-rule="evenodd" d="M122 0H192C195.314 0 198 2.68629 198 6V42H211C214.314 42 217 44.6863 217 48V101C217 104.314 214.314 107 211 107H9C4.02944 107 0 102.971 0 98H15.6458C14.9333 97.2039 14.5 96.1525 14.5 95V20C14.5 17.5147 16.5147 15.5 19 15.5H114C114.718 15.5 115.398 15.6684 116 15.9678V6C116 2.68629 118.686 0 122 0ZM122.488 104C121.836 102.155 120.599 100.586 119 99.5155V6C119 4.34314 120.343 3 122 3H192C193.657 3 195 4.34315 195 6V42H189C185.686 42 183 44.6863 183 48V101C183 102.093 183.292 103.117 183.803 104H122.488ZM189 104H192C193.657 104 195 102.657 195 101V47.5H192C190.619 47.5 189.5 46.3807 189.5 45H189C187.343 45 186 46.3431 186 48V101C186 102.657 187.343 104 189 104ZM198 101V47.5H206.452C207.832 47.5 208.952 46.3807 208.952 45H211C212.657 45 214 46.3431 214 48V101C214 102.657 212.657 104 211 104H197.197C197.708 103.117 198 102.093 198 101ZM19 18.5C18.1716 18.5 17.5 19.1716 17.5 20V95C17.5 95.8284 18.1716 96.5 19 96.5H114C114.828 96.5 115.5 95.8284 115.5 95V20C115.5 19.1716 114.828 18.5 114 18.5H19Z" fill="url(#paint0_linear_54_97)"/>
<defs>
<linearGradient id="paint0_linear_54_97" x1="4.5" y1="107" x2="221.5" y2="-1.26651e-05" gradientUnits="userSpaceOnUse">
<stop stop-color="#933B77"/>
<stop offset="1" stop-color="#DF0265"/>
</linearGradient>
</defs>
</svg>
