<svg width="91" height="91" viewBox="0 0 91 91" fill="none" xmlns="http://www.w3.org/2000/svg">
<path d="M46.2755 0.00677841C36.4798 -0.162295 26.8914 2.8355 18.9365 8.55419C18.8152 8.6414 18.7123 8.75165 18.6337 8.87864C18.555 9.00562 18.5021 9.14686 18.4781 9.29428C18.454 9.4417 18.4592 9.59241 18.4933 9.73782C18.5275 9.88324 18.59 10.0205 18.6772 10.1418C18.7644 10.263 18.8747 10.3659 19.0017 10.4446C19.1286 10.5232 19.2699 10.5761 19.4173 10.6002C19.5647 10.6243 19.7154 10.6191 19.8608 10.5849C20.0063 10.5507 20.1435 10.4883 20.2648 10.401C25.2876 6.79 31.0272 4.29952 37.0955 3.09802C43.1638 1.89651 49.4194 2.012 55.4393 3.43666C55.5857 3.47427 55.7382 3.4823 55.8877 3.46028C56.0373 3.43827 56.181 3.38665 56.3104 3.30845C56.4398 3.23025 56.5523 3.12703 56.6413 3.00483C56.7303 2.88264 56.7941 2.74392 56.8289 2.59679C56.8637 2.44965 56.8687 2.29706 56.8439 2.14794C56.819 1.99882 56.7646 1.85615 56.6839 1.7283C56.6032 1.60044 56.4979 1.48995 56.374 1.40329C56.2501 1.31664 56.1102 1.25555 55.9624 1.22361C52.7857 0.471365 49.5395 0.0634016 46.2755 0.00677841ZM62.1876 3.2638C61.9218 3.26232 61.6639 3.35397 61.4587 3.52284C61.2534 3.69171 61.1138 3.92714 61.0641 4.18822C61.0144 4.44931 61.0576 4.71957 61.1864 4.95206C61.3152 5.18456 61.5214 5.3646 61.7691 5.46093C70.4693 8.9987 77.7798 15.2749 82.5938 23.3393C87.4078 31.4037 89.4631 40.817 88.4485 50.154C88.4323 50.3026 88.4456 50.4529 88.4876 50.5964C88.5296 50.7398 88.5994 50.8736 88.693 50.9901C88.7867 51.1066 88.9024 51.2035 89.0335 51.2752C89.1646 51.347 89.3086 51.3922 89.4572 51.4084C89.6058 51.4245 89.7561 51.4112 89.8996 51.3692C90.043 51.3273 90.1768 51.2575 90.2933 51.1638C90.4098 51.0701 90.5067 50.9544 90.5784 50.8233C90.6502 50.6922 90.6954 50.5482 90.7116 50.3997C91.7765 40.5718 89.6115 30.6646 84.5442 22.1768C79.4769 13.689 71.783 7.08257 62.6266 3.35705C62.4879 3.29712 62.3386 3.26542 62.1876 3.2638ZM45.0586 6.57314C44.183 6.57314 43.3073 6.6209 42.4316 6.69368C42.2782 6.69898 42.1275 6.7353 41.9884 6.80043C41.8494 6.86556 41.725 6.95816 41.6228 7.07266C41.5205 7.18715 41.4425 7.32117 41.3934 7.46662C41.3443 7.61208 41.3252 7.76597 41.3372 7.91902C41.3492 8.07207 41.392 8.22111 41.4631 8.35715C41.5343 8.49319 41.6322 8.61343 41.751 8.71061C41.8699 8.80778 42.0072 8.87989 42.1546 8.92259C42.3021 8.96529 42.4567 8.97769 42.6091 8.95904C49.2095 8.43819 55.8237 9.71871 61.7554 12.6596C61.8894 12.7259 62.0351 12.7652 62.1842 12.7752C62.3334 12.7852 62.483 12.7657 62.6246 12.7178C62.7663 12.67 62.8971 12.5947 63.0096 12.4964C63.1221 12.398 63.2141 12.2784 63.2805 12.1444C63.3468 12.0105 63.386 11.8647 63.396 11.7156C63.406 11.5665 63.3866 11.4168 63.3387 11.2752C63.2909 11.1336 63.2156 11.0028 63.1172 10.8903C63.0188 10.7777 62.8993 10.6857 62.7653 10.6194C57.265 7.89234 51.1976 6.50506 45.0586 6.57086V6.57314ZM35.7152 7.85593C35.6127 7.8574 35.511 7.8727 35.4127 7.90142C27.1393 10.1207 19.829 15.0071 14.6148 21.8032C9.40067 28.5993 6.57387 36.9255 6.57255 45.4914C6.57255 50.2973 6.96376 52.4216 6.47475 56.7522C6.18996 58.8318 5.2802 60.7759 3.86595 62.3269C3.66266 62.5501 3.55636 62.8449 3.57044 63.1465C3.58452 63.448 3.71781 63.7317 3.941 63.9349C4.1642 64.1382 4.459 64.2445 4.76057 64.2305C5.06213 64.2164 5.34576 64.0831 5.54904 63.8599C7.27633 61.9656 8.38617 59.5904 8.73101 57.0502C8.73112 57.0411 8.73112 57.032 8.73101 57.0229C9.24959 52.4649 8.84246 50.1745 8.84246 45.4914C8.8413 37.4246 11.5025 29.5829 16.4132 23.1831C21.3239 16.7833 28.2096 12.1831 36.0018 10.0963C36.2712 10.0287 36.5066 9.86494 36.6636 9.63576C36.8205 9.40658 36.8882 9.12788 36.8538 8.85224C36.8194 8.5766 36.6852 8.32309 36.4767 8.13955C36.2682 7.95601 35.9998 7.85512 35.722 7.85593H35.7174H35.7152ZM14.1033 12.9826C13.8081 12.9904 13.5275 13.1127 13.3209 13.3237C8.14309 18.503 4.29214 24.8556 2.09526 31.8419C-0.101633 38.8281 -0.579529 46.2415 0.702176 53.452C0.724781 53.6023 0.777288 53.7465 0.856592 53.8762C0.935895 54.0059 1.04039 54.1183 1.16389 54.2069C1.2874 54.2955 1.42741 54.3584 1.57565 54.392C1.7239 54.4256 1.87737 54.4291 2.02699 54.4023C2.17661 54.3756 2.31935 54.3191 2.44677 54.2362C2.57419 54.1533 2.6837 54.0458 2.76884 53.9199C2.85398 53.7939 2.91301 53.6522 2.94245 53.5031C2.97189 53.354 2.97114 53.2005 2.94024 53.0517C1.72251 46.2019 2.17655 39.1594 4.26378 32.5228C6.351 25.8861 10.0097 19.8515 14.9289 14.9318C15.0921 14.7719 15.2034 14.5666 15.2482 14.3426C15.293 14.1185 15.2694 13.8862 15.1802 13.6758C15.0911 13.4655 14.9407 13.2868 14.7486 13.1632C14.5565 13.0395 14.3317 12.9766 14.1033 12.9826ZM45.2451 13.1372V13.1418C39.6091 13.1859 34.0823 14.7011 29.2118 17.5375C24.3413 20.3738 20.296 24.433 17.4763 29.3132C17.394 29.4426 17.3388 29.5873 17.3139 29.7387C17.289 29.89 17.295 30.0448 17.3314 30.1938C17.3679 30.3428 17.4342 30.4828 17.5262 30.6055C17.6182 30.7283 17.7341 30.8311 17.8669 30.9078C17.9997 30.9846 18.1466 31.0337 18.2989 31.0522C18.4512 31.0707 18.6056 31.0582 18.7529 31.0155C18.9002 30.9727 19.0373 30.9006 19.156 30.8035C19.2748 30.7064 19.3726 30.5863 19.4437 30.4504C22.6899 24.8262 27.6699 20.4042 33.6385 17.8458C39.6071 15.2875 46.2436 14.7304 52.5553 16.2578C58.867 17.7819 64.5155 21.3088 68.6556 26.3108C72.7958 31.3127 75.205 37.5208 75.5227 44.0062C75.5302 44.1555 75.567 44.3019 75.6311 44.437C75.6951 44.5721 75.7851 44.6933 75.896 44.7936C76.0069 44.894 76.1365 44.9715 76.2773 45.0217C76.4181 45.072 76.5675 45.094 76.7168 45.0865C76.8662 45.0791 77.0126 45.0422 77.1477 44.9782C77.2828 44.9141 77.404 44.8241 77.5043 44.7132C77.6046 44.6023 77.6821 44.4728 77.7324 44.332C77.7826 44.1911 77.8047 44.0418 77.7972 43.8924C77.3839 35.5578 73.7666 27.705 67.7009 21.9741C61.6351 16.2431 53.5898 13.0771 45.2451 13.1372ZM68.0739 14.1016C67.8372 14.1105 67.6093 14.193 67.4218 14.3376C67.2343 14.4823 67.0967 14.6818 67.028 14.9085C66.9594 15.1351 66.9633 15.3775 67.039 15.6019C67.1148 15.8262 67.2587 16.0213 67.4507 16.16C73.5397 20.7183 78.0595 27.0584 80.3832 34.301C80.4228 34.4501 80.4923 34.5895 80.5874 34.7109C80.6826 34.8322 80.8014 34.9329 80.9367 35.0069C81.072 35.0809 81.2209 35.1266 81.3745 35.1412C81.528 35.1559 81.6828 35.1391 81.8297 35.092C81.9765 35.0449 82.1122 34.9685 82.2286 34.8673C82.345 34.7661 82.4395 34.6423 82.5065 34.5034C82.5736 34.3646 82.6117 34.2135 82.6185 34.0595C82.6253 33.9054 82.6007 33.7516 82.5462 33.6073C80.0799 25.915 75.2811 19.1806 68.8154 14.3381C68.6037 14.1745 68.3412 14.0908 68.0739 14.1016ZM45.4885 19.7127C41.6671 19.7134 37.8937 20.5637 34.4413 22.2019C30.9889 23.8401 27.9439 26.2253 25.5265 29.1849C23.1091 32.1445 21.3799 35.6045 20.464 39.3144C19.5481 43.0244 19.4684 46.8916 20.2307 50.6362C20.2605 50.7826 20.3189 50.9216 20.4025 51.0454C20.4861 51.1692 20.5933 51.2753 20.7179 51.3576C20.8425 51.44 20.9821 51.497 21.1288 51.5254C21.2754 51.5539 21.4262 51.5531 21.5726 51.5232C21.719 51.4934 21.858 51.435 21.9818 51.3514C22.1056 51.2678 22.2117 51.1606 22.294 51.036C22.3764 50.9114 22.4334 50.7718 22.4618 50.6251C22.4903 50.4785 22.4895 50.3277 22.4596 50.1813C21.7644 46.7673 21.8369 43.2414 22.6719 39.8589C23.5069 36.4763 25.0835 33.3217 27.2876 30.6234C29.4917 27.9252 32.2682 25.7507 35.4161 24.2574C38.5639 22.7642 42.0044 21.9895 45.4885 21.9894C45.7901 21.9894 46.0794 21.8696 46.2927 21.6563C46.5059 21.4431 46.6257 21.1538 46.6257 20.8522C46.6257 20.5506 46.5059 20.2613 46.2927 20.048C46.0794 19.8348 45.7901 19.7127 45.4885 19.7127ZM52.9556 20.859L52.9601 20.8636C52.9222 20.8617 52.8843 20.8617 52.8464 20.8636C52.5809 20.8829 52.3306 20.9947 52.1391 21.1796C51.9476 21.3644 51.827 21.6106 51.7984 21.8752C51.7697 22.1399 51.8347 22.4062 51.9822 22.6278C52.1296 22.8494 52.3501 23.0122 52.6053 23.088C57.3607 24.598 61.5119 27.5828 64.4574 31.6099C67.403 35.6371 68.9898 40.4974 68.9882 45.4868C68.9881 45.4944 68.9881 45.502 68.9882 45.5096C69.1156 51.5915 69.0928 57.9213 68.481 63.4027C68.4475 63.7028 68.5346 64.0039 68.7232 64.2398C68.9117 64.4757 69.1862 64.627 69.4863 64.6605C69.7864 64.694 70.0875 64.6069 70.3234 64.4183C70.5593 64.2298 70.7106 63.9553 70.7441 63.6552C71.3741 57.9963 71.3878 51.596 71.2581 45.4823C71.2581 34.2601 63.9844 24.3207 53.2899 20.9204C53.1822 20.8833 53.0695 20.8626 52.9556 20.859ZM44.3877 26.3131C41.8587 26.4589 39.3836 27.1035 37.1049 28.2101C36.8334 28.3416 36.6253 28.5755 36.5264 28.8604C36.4274 29.1454 36.4457 29.4579 36.5772 29.7294C36.7087 30.0008 36.9426 30.2089 37.2276 30.3079C37.5125 30.4068 37.8251 30.3886 38.0965 30.2571C40.7726 28.9586 43.7435 28.3881 46.7102 28.6029C49.6769 28.8177 52.5346 29.8103 54.9958 31.4807C55.1192 31.5695 55.2593 31.6326 55.4076 31.6663C55.5559 31.7 55.7094 31.7036 55.8591 31.6769C56.0089 31.6502 56.1517 31.5937 56.2792 31.5108C56.4067 31.428 56.5163 31.3204 56.6015 31.1944C56.6867 31.0684 56.7458 30.9266 56.7752 30.7774C56.8047 30.6282 56.8039 30.4747 56.7729 30.3258C56.742 30.1769 56.6814 30.0357 56.595 29.9106C56.5085 29.7855 56.3978 29.679 56.2694 29.5975C52.7779 27.2256 48.6017 26.0712 44.3877 26.3131ZM32.6901 31.5649C32.3943 31.5739 32.1136 31.6979 31.9077 31.9106C28.3054 35.5123 26.2813 40.3974 26.2807 45.4914V53.0312C26.2807 62.6635 22.2959 71.5749 15.6499 78.0957C15.5338 78.1979 15.4398 78.3226 15.3735 78.4624C15.3073 78.6021 15.2702 78.7539 15.2647 78.9084C15.2591 79.0629 15.2851 79.217 15.341 79.3611C15.397 79.5053 15.4818 79.6365 15.5902 79.7468C15.6986 79.8571 15.8284 79.9441 15.9715 80.0025C16.1147 80.0609 16.2683 80.0895 16.4229 80.0865C16.5775 80.0836 16.7299 80.0491 16.8708 79.9852C17.0116 79.9214 17.1379 79.8295 17.242 79.7151C24.3019 72.7894 28.5552 63.2913 28.5552 53.0312V45.4914C28.5552 40.9993 30.3406 36.696 33.5158 33.5186C33.6806 33.359 33.7933 33.1533 33.8391 32.9285C33.8849 32.7037 33.8616 32.4702 33.7723 32.2589C33.683 32.0476 33.5318 31.8682 33.3387 31.7443C33.1456 31.6204 32.9195 31.5579 32.6901 31.5649ZM45.4885 32.8659C45.3437 32.8652 45.2001 32.8922 45.0655 32.9455C41.904 33.0592 38.8744 34.2942 36.6295 36.5482C34.2787 38.9099 32.9595 42.1068 32.9608 45.4391L32.9267 50.3974C32.9252 50.5467 32.9531 50.6949 33.0089 50.8334C33.0647 50.972 33.1472 51.0982 33.2517 51.2049C33.3563 51.3115 33.4808 51.3965 33.6182 51.4551C33.7556 51.5136 33.9032 51.5445 34.0525 51.546C34.2019 51.5475 34.3501 51.5195 34.4886 51.4638C34.6272 51.408 34.7534 51.3255 34.86 51.2209C34.9667 51.1164 35.0517 50.9919 35.1102 50.8545C35.1688 50.7171 35.1997 50.5695 35.2011 50.4201L35.2353 45.455C35.235 42.7246 36.3161 40.1052 38.2421 38.1699C39.1919 37.2148 40.3209 36.4567 41.5645 35.9392C42.808 35.4216 44.1416 35.1548 45.4885 35.154C46.8494 35.1519 48.1973 35.4184 49.455 35.9384C50.7126 36.4584 51.8552 37.2215 52.8173 38.184C53.7794 39.1465 54.542 40.2895 55.0614 41.5473C55.5808 42.8052 55.8468 44.1532 55.8441 45.5141V48.8007C55.8441 54.7927 55.2228 60.7686 53.9904 66.6325C53.9595 66.7787 53.9577 66.9295 53.9851 67.0764C54.0125 67.2233 54.0685 67.3634 54.1501 67.4887C54.2316 67.6139 54.337 67.7219 54.4602 67.8064C54.5835 67.8909 54.7222 67.9503 54.8684 67.9812C55.0146 68.0121 55.1655 68.0139 55.3124 67.9865C55.4593 67.9592 55.5993 67.9031 55.7246 67.8216C55.9775 67.6569 56.1547 67.3986 56.2171 67.1033C57.4815 61.0845 58.1187 54.9509 58.1186 48.8007V45.5141C58.1186 38.6976 52.6644 33.2002 45.9047 32.9637C45.7725 32.9097 45.6313 32.8812 45.4885 32.8795V32.8659ZM60.5295 34.3443C60.322 34.3441 60.1184 34.4006 59.9408 34.5078C59.7632 34.615 59.6182 34.7688 59.5217 34.9525C59.4252 35.1361 59.3808 35.3427 59.3932 35.5498C59.4057 35.7569 59.4746 35.9567 59.5924 36.1274C61.7196 39.3306 62.6927 43.1626 62.3513 46.9925C62.3242 47.2929 62.4175 47.5918 62.6107 47.8234C62.8039 48.055 63.0813 48.2004 63.3817 48.2276C63.6821 48.2547 63.981 48.1614 64.2126 47.9682C64.4442 47.7749 64.5896 47.4976 64.6167 47.1972C65.0047 42.8521 63.9018 38.5043 61.4893 34.8697C61.3862 34.7089 61.2441 34.5766 61.0764 34.4852C60.9086 34.3938 60.7205 34.3461 60.5295 34.3465V34.3443ZM15.286 36.2616C15.0431 36.2736 14.8104 36.3631 14.6221 36.517C14.4338 36.6709 14.2998 36.8811 14.2397 37.1168C13.3663 40.3839 13.0102 43.7676 13.1844 47.1449C13.2981 50.7363 13.098 52.0259 13.1389 57.0411C13.1388 57.0487 13.1388 57.0562 13.1389 57.0638C13.2458 61.3443 10.9645 65.3406 7.16846 67.4899C6.90576 67.6386 6.71288 67.8856 6.63226 68.1765C6.55165 68.4674 6.58989 68.7784 6.73859 69.0411C6.88728 69.3038 7.13425 69.4967 7.42515 69.5773C7.71605 69.6579 8.02706 69.6197 8.28977 69.471C12.7977 66.9168 15.543 62.1313 15.4134 57.0069C15.3747 52.0646 15.5726 50.7545 15.4543 47.0517C15.4544 47.0441 15.4544 47.0365 15.4543 47.0289C15.2938 43.891 15.6269 40.7473 16.4414 37.7127C16.4923 37.5381 16.5005 37.3538 16.4654 37.1754C16.4303 36.9969 16.3529 36.8295 16.2397 36.6871C16.1266 36.5447 15.9809 36.4316 15.8149 36.3572C15.649 36.2827 15.4676 36.2515 15.286 36.2616ZM45.4885 39.4231C43.8812 39.4285 42.3413 40.0697 41.2052 41.2067C40.0691 42.3437 39.429 43.8841 39.4248 45.4914L39.3566 51.7143C39.0845 57.8525 37.9592 63.9229 36.0131 69.7507C35.9566 69.8943 35.9299 70.0479 35.9346 70.2022C35.9394 70.3564 35.9754 70.5081 36.0407 70.648C36.1059 70.7878 36.1989 70.9129 36.314 71.0157C36.4291 71.1185 36.564 71.1967 36.7103 71.2457C36.8567 71.2947 37.0114 71.3134 37.1652 71.3006C37.319 71.2879 37.4686 71.244 37.6049 71.1716C37.7412 71.0992 37.8613 70.9998 37.9579 70.8795C38.0546 70.7592 38.1257 70.6204 38.167 70.4717C40.1811 64.4442 41.3462 58.1655 41.6288 51.8166C41.6291 51.8015 41.6291 51.7863 41.6288 51.7712L41.6947 45.4959C41.6947 43.3898 43.3778 41.7021 45.484 41.7021C45.9825 41.7003 46.4764 41.7972 46.9372 41.9873C47.3981 42.1774 47.8167 42.4568 48.169 42.8096C48.5213 43.1623 48.8002 43.5812 48.9898 44.0423C49.1793 44.5034 49.2756 44.9974 49.2732 45.4959C49.2732 45.7975 49.393 46.0868 49.6063 46.3001C49.8196 46.5133 50.1088 46.6332 50.4104 46.6332C50.7121 46.6332 51.0013 46.5133 51.2146 46.3001C51.4279 46.0868 51.5477 45.7975 51.5477 45.4959C51.5477 42.1593 48.8183 39.4277 45.484 39.4277L45.4885 39.4231ZM82.8965 39.455V39.4686C82.7382 39.4759 82.5831 39.5162 82.4413 39.5869C82.2995 39.6577 82.174 39.7573 82.0729 39.8793C81.9718 40.0014 81.8974 40.1432 81.8544 40.2958C81.8113 40.4483 81.8006 40.6081 81.823 40.7651C82.0049 42.157 82.1073 43.5558 82.1278 44.9591V52.0782C82.1278 58.9971 81.1861 65.8842 79.3256 72.546C79.2853 72.6899 79.2737 72.8402 79.2915 72.9885C79.3093 73.1368 79.3561 73.2802 79.4293 73.4104C79.5024 73.5406 79.6006 73.6551 79.718 73.7474C79.8354 73.8397 79.9699 73.9079 80.1137 73.9483C80.2575 73.9886 80.4079 74.0002 80.5562 73.9824C80.7045 73.9646 80.8478 73.9178 80.978 73.8446C81.1082 73.7714 81.2228 73.6733 81.3151 73.5559C81.4073 73.4384 81.4756 73.304 81.5159 73.1602C83.433 66.2977 84.4048 59.2057 84.4045 52.0805V44.9387C84.4046 44.9311 84.4046 44.9235 84.4045 44.9159C84.3811 43.425 84.2725 41.9366 84.0792 40.458C84.0456 40.1722 83.9048 39.9098 83.6854 39.7236C83.4659 39.5375 83.184 39.4415 82.8965 39.455ZM76.6486 49.3352C76.3473 49.3447 76.0622 49.4734 75.8557 49.6931C75.6493 49.9127 75.5386 50.2053 75.5477 50.5066C75.728 60.7989 74.1259 71.0449 70.8123 80.791C70.7152 81.0766 70.7355 81.3891 70.8688 81.6597C71.0021 81.9304 71.2375 82.137 71.5231 82.2341C71.8087 82.3312 72.1212 82.3109 72.3919 82.1776C72.6625 82.0443 72.8691 81.809 72.9662 81.5233C76.3644 71.5292 78.0073 61.0223 77.8222 50.4679C77.8217 50.3158 77.7906 50.1654 77.731 50.0255C77.6713 49.8857 77.5841 49.7592 77.4747 49.6536C77.3653 49.548 77.2358 49.4654 77.0939 49.4107C76.952 49.356 76.8006 49.3303 76.6486 49.3352ZM50.0352 50.8978C49.754 50.9084 49.4868 51.0229 49.2852 51.2191C49.0836 51.4152 48.9618 51.6792 48.9434 51.9599C47.9219 64.9618 43.7797 77.5255 36.8683 88.5855C36.7091 88.8419 36.6582 89.151 36.7269 89.4449C36.7955 89.7388 36.9781 89.9934 37.2345 90.1526C37.4909 90.3119 37.8 90.3628 38.0939 90.2941C38.3878 90.2254 38.6424 90.0428 38.8016 89.7864C45.9049 78.4171 50.1609 65.5022 51.2088 52.1373C51.2234 51.9765 51.2036 51.8144 51.1507 51.6618C51.0979 51.5092 51.0131 51.3696 50.902 51.2524C50.791 51.1351 50.6563 51.0428 50.5068 50.9817C50.3573 50.9205 50.1965 50.8919 50.0352 50.8978ZM63.5477 52.6036C63.3984 52.603 63.2504 52.6318 63.1122 52.6884C62.974 52.745 62.8483 52.8283 62.7422 52.9335C62.6362 53.0387 62.5519 53.1637 62.4942 53.3014C62.4365 53.4392 62.4065 53.5869 62.4059 53.7363C62.1789 65.6417 59.5267 77.3758 54.6114 88.2216C54.5415 88.3586 54.5001 88.5084 54.4898 88.6618C54.4795 88.8152 54.5004 88.9692 54.5512 89.1143C54.6021 89.2595 54.6818 89.3928 54.7857 89.5062C54.8895 89.6196 55.0153 89.7108 55.1554 89.7742C55.2955 89.8377 55.447 89.872 55.6008 89.8752C55.7545 89.8784 55.9073 89.8504 56.05 89.7929C56.1926 89.7353 56.3221 89.6495 56.4305 89.5405C56.539 89.4315 56.6243 89.3016 56.6811 89.1587C61.725 78.0329 64.4469 65.9953 64.6804 53.7818C64.6859 53.6294 64.6607 53.4775 64.6063 53.335C64.5519 53.1926 64.4694 53.0626 64.3637 52.9527C64.258 52.8428 64.1313 52.7552 63.9912 52.6952C63.851 52.6353 63.7002 52.6041 63.5477 52.6036ZM20.7424 55.8652C20.4611 55.8783 20.1946 55.9953 19.9946 56.1936C19.7945 56.392 19.6752 56.6575 19.6598 56.9387C19.4445 60.1381 18.5767 63.2597 17.1099 66.1112C15.643 68.9627 13.6082 71.4838 11.1306 73.5195C11.0032 73.6099 10.8957 73.7256 10.815 73.8593C10.7343 73.9931 10.682 74.142 10.6613 74.2968C10.6407 74.4517 10.6522 74.6091 10.6951 74.7593C10.738 74.9095 10.8114 75.0493 10.9107 75.1699C11.01 75.2905 11.133 75.3893 11.2722 75.4603C11.4114 75.5312 11.5637 75.5727 11.7196 75.5822C11.8756 75.5916 12.0318 75.5689 12.1785 75.5153C12.3253 75.4618 12.4594 75.3785 12.5726 75.2709C15.2895 73.0398 17.5213 70.2765 19.1304 67.1508C20.7396 64.0251 21.6923 60.6032 21.9297 57.0957C21.9431 56.9344 21.922 56.772 21.8677 56.6196C21.8134 56.4671 21.7272 56.328 21.6148 56.2115C21.5024 56.095 21.3664 56.0039 21.216 55.9441C21.0656 55.8844 20.9041 55.8575 20.7424 55.8652ZM33.2246 55.8811L33.2201 55.8857C32.9591 55.9018 32.7116 56.0075 32.5194 56.1848C32.3271 56.3621 32.2019 56.6002 32.1647 56.8591C30.6964 66.1787 26.9451 74.9902 21.2451 82.5082C21.1549 82.6272 21.089 82.7628 21.0512 82.9073C21.0134 83.0518 21.0045 83.2023 21.0248 83.3503C21.0452 83.4982 21.0945 83.6407 21.17 83.7696C21.2454 83.8985 21.3455 84.0112 21.4646 84.1014C21.5836 84.1916 21.7192 84.2575 21.8637 84.2953C22.0082 84.3331 22.1587 84.342 22.3066 84.3217C22.4546 84.3013 22.5971 84.252 22.726 84.1765C22.8549 84.1011 22.9676 84.001 23.0578 83.8819C28.9848 76.0655 32.8854 66.9039 34.4119 57.2139C34.4418 57.0448 34.4329 56.8711 34.386 56.7058C34.3391 56.5406 34.2554 56.3881 34.1412 56.2599C34.0269 56.1316 33.8851 56.0309 33.7264 55.9653C33.5676 55.8997 33.3961 55.8709 33.2246 55.8811ZM68.5697 69.0002C68.3077 69.0046 68.0553 69.0994 67.8551 69.2685C67.655 69.4376 67.5193 69.6706 67.4711 69.9281C66.4007 75.2836 64.7748 80.5128 62.6197 85.5309C62.5528 85.6693 62.5146 85.8197 62.5075 85.9732C62.5003 86.1267 62.5243 86.2801 62.5781 86.424C62.6318 86.568 62.7142 86.6996 62.8202 86.8108C62.9262 86.922 63.0537 87.0106 63.1949 87.0712C63.3361 87.1318 63.4882 87.1632 63.6418 87.1634C63.7955 87.1636 63.9476 87.1327 64.089 87.0725C64.2304 87.0123 64.3581 86.9241 64.4644 86.8131C64.5708 86.7022 64.6535 86.5709 64.7077 86.4271C66.9261 81.2642 68.6001 75.8841 69.7024 70.3739C69.7381 70.2063 69.7354 70.0329 69.6946 69.8664C69.6538 69.7 69.5759 69.545 69.4668 69.4129C69.3577 69.2808 69.2201 69.175 69.0644 69.1036C68.9086 69.0321 68.741 68.9968 68.5697 69.0002ZM53.4377 72.2663C53.1953 72.2733 52.9615 72.3577 52.7704 72.507C52.5793 72.6564 52.441 72.8629 52.3756 73.0965C50.7349 78.7157 48.5295 84.1543 45.7933 89.3293C45.7234 89.4614 45.6802 89.6061 45.6662 89.7549C45.6522 89.9038 45.6677 90.0539 45.7117 90.1968C45.7558 90.3397 45.8275 90.4725 45.9229 90.5877C46.0182 90.7028 46.1353 90.798 46.2675 90.8679C46.3997 90.9378 46.5443 90.981 46.6932 90.995C46.842 91.009 46.9922 90.9935 47.1351 90.9495C47.2779 90.9055 47.4108 90.8337 47.5259 90.7384C47.6411 90.643 47.7363 90.5259 47.8062 90.3937C50.6128 85.083 52.8745 79.5019 54.5568 73.7356C54.6095 73.563 54.6205 73.3804 54.5887 73.2027C54.5569 73.0251 54.4833 72.8576 54.374 72.714C54.2646 72.5705 54.1227 72.455 53.9599 72.3771C53.7971 72.2993 53.6181 72.2613 53.4377 72.2663ZM34.3983 75.5847C34.1949 75.6028 34.0002 75.6752 33.8345 75.7945C33.6688 75.9138 33.5383 76.0754 33.4566 76.2625C31.9077 79.6607 30.074 82.9218 27.9752 86.0108C27.8834 86.1339 27.8175 86.2742 27.7814 86.4234C27.7454 86.5726 27.7399 86.7276 27.7653 86.8789C27.7907 87.0303 27.8465 87.175 27.9293 87.3042C28.0121 87.4335 28.1202 87.5446 28.2471 87.631C28.374 87.7173 28.5171 87.7771 28.6677 87.8067C28.8183 87.8362 28.9733 87.835 29.1235 87.8031C29.2736 87.7711 29.4157 87.7091 29.5413 87.6208C29.6668 87.5324 29.7731 87.4196 29.8539 87.2891C32.0257 84.0934 33.9233 80.7197 35.5264 77.2041C35.6069 77.0322 35.6431 76.8428 35.6317 76.6533C35.6202 76.4637 35.5615 76.2801 35.4609 76.1191C35.3602 75.9581 35.2209 75.8248 35.0555 75.7315C34.8902 75.6381 34.7041 75.5877 34.5143 75.5847C34.4756 75.5828 34.4369 75.5828 34.3983 75.5847Z" fill="#F3005E"/>
</svg>
