<svg width="101" height="73" viewBox="0 0 101 73" fill="none" xmlns="http://www.w3.org/2000/svg">
<path fill-rule="evenodd" clip-rule="evenodd" d="M12.0164 33.5019L17.6568 39.3702C25.0636 33.2047 35.0155 28 47.5 28C60.1111 27.9999 71.7111 33.736 81.1338 40.5561L87.0337 34.5983L86.9854 34.5447C85.1007 32.4492 82.08 29.0907 76.9179 25.8028C70.6312 21.7986 61.2021 17.9999 47.5 18C33.945 18.0001 24.7697 22.4197 19.0149 26.7076C16.1174 28.8665 14.0602 31.0135 12.7447 32.592C12.4693 32.9226 12.2268 33.2276 12.0164 33.5019ZM29.9537 52.1639L23.2153 45.1532C29.5368 40.0089 37.6278 36 47.5 36C57.419 35.9999 67.0255 40.4177 75.4305 46.3152L67.6701 54.1517C67.095 53.473 66.4697 52.819 65.7897 52.1959C61.5249 48.2884 55.5457 45.9999 47.4999 46C39.832 46 34.0638 48.3003 29.9537 52.1639ZM35.4982 57.9324L49.5 72.5L62.0066 59.8708C61.5177 59.2322 60.9788 58.6383 60.3853 58.0944C57.8722 55.7919 53.9543 53.9999 47.5 54C41.6252 54 37.9292 55.6807 35.4982 57.9324ZM6.42333 27.6828C6.48079 27.6129 6.53935 27.5421 6.599 27.4705C8.25229 25.4866 10.7576 22.8836 14.2351 20.2925C21.2303 15.0804 32.055 10.0001 47.5 9.99997C62.7979 9.99988 73.7079 14.2733 81.2156 19.0552C86.985 22.7298 90.7737 26.7726 92.6789 28.8977L100.5 21C100.5 21 80.5 0 47.9999 0C15.4999 0 0 21 0 21L6.42333 27.6828Z" fill="url(#paint0_linear_54_34)"/>
<defs>
<linearGradient id="paint0_linear_54_34" x1="10" y1="39.5" x2="93" y2="39.5" gradientUnits="userSpaceOnUse">
<stop stop-color="#97D7E2"/>
<stop offset="1" stop-color="#06BCE7"/>
</linearGradient>
</defs>
</svg>
